<mxfile host="app.diagrams.net" modified="2023-11-17T14:21:36.540Z" agent="Mozilla/5.0 (Windows NT 10.0; Win64; x64; rv:109.0) Gecko/20100101 Firefox/119.0" etag="gVoK90wL3BJpzfkqiwtg" version="21.8.2" type="device">
  <diagram id="C5RBs43oDa-KdzZeNtuy" name="Page-1">
    <mxGraphModel dx="2607" dy="1422" grid="1" gridSize="10" guides="1" tooltips="1" connect="1" arrows="1" fold="1" page="1" pageScale="1" pageWidth="827" pageHeight="1169" math="0" shadow="0">
      <root>
        <mxCell id="WIyWlLk6GJQsqaUBKTNV-0" />
        <mxCell id="WIyWlLk6GJQsqaUBKTNV-1" parent="WIyWlLk6GJQsqaUBKTNV-0" />
        <mxCell id="IKVUPvJk9BNW48r0KVwh-2" value="" style="edgeStyle=orthogonalEdgeStyle;rounded=0;orthogonalLoop=1;jettySize=auto;html=1;" edge="1" parent="WIyWlLk6GJQsqaUBKTNV-1" source="IKVUPvJk9BNW48r0KVwh-0" target="IKVUPvJk9BNW48r0KVwh-1">
          <mxGeometry relative="1" as="geometry" />
        </mxCell>
        <mxCell id="IKVUPvJk9BNW48r0KVwh-0" value="Start" style="strokeWidth=2;html=1;shape=mxgraph.flowchart.start_1;whiteSpace=wrap;" vertex="1" parent="WIyWlLk6GJQsqaUBKTNV-1">
          <mxGeometry x="332" y="160" width="164" height="80" as="geometry" />
        </mxCell>
        <mxCell id="IKVUPvJk9BNW48r0KVwh-4" value="" style="edgeStyle=orthogonalEdgeStyle;rounded=0;orthogonalLoop=1;jettySize=auto;html=1;" edge="1" parent="WIyWlLk6GJQsqaUBKTNV-1" source="IKVUPvJk9BNW48r0KVwh-1" target="IKVUPvJk9BNW48r0KVwh-3">
          <mxGeometry relative="1" as="geometry" />
        </mxCell>
        <mxCell id="IKVUPvJk9BNW48r0KVwh-1" value="&lt;div&gt;make step in market&lt;/div&gt;&lt;div&gt;(random week walk or linear)&lt;br&gt;&lt;/div&gt;" style="whiteSpace=wrap;html=1;strokeWidth=2;" vertex="1" parent="WIyWlLk6GJQsqaUBKTNV-1">
          <mxGeometry x="334" y="280" width="160" height="60" as="geometry" />
        </mxCell>
        <mxCell id="IKVUPvJk9BNW48r0KVwh-11" value="" style="edgeStyle=orthogonalEdgeStyle;rounded=0;orthogonalLoop=1;jettySize=auto;html=1;" edge="1" parent="WIyWlLk6GJQsqaUBKTNV-1" source="IKVUPvJk9BNW48r0KVwh-3" target="IKVUPvJk9BNW48r0KVwh-10">
          <mxGeometry relative="1" as="geometry" />
        </mxCell>
        <mxCell id="IKVUPvJk9BNW48r0KVwh-3" value="&lt;div&gt;get action values&lt;/div&gt;&lt;div&gt;reward = 0&lt;br&gt;&lt;/div&gt;" style="whiteSpace=wrap;html=1;strokeWidth=2;" vertex="1" parent="WIyWlLk6GJQsqaUBKTNV-1">
          <mxGeometry x="354" y="400" width="120" height="60" as="geometry" />
        </mxCell>
        <mxCell id="IKVUPvJk9BNW48r0KVwh-5" value="observation space" style="rounded=0;whiteSpace=wrap;html=1;" vertex="1" parent="WIyWlLk6GJQsqaUBKTNV-1">
          <mxGeometry x="80" y="40" width="320" height="40" as="geometry" />
        </mxCell>
        <mxCell id="IKVUPvJk9BNW48r0KVwh-7" style="edgeStyle=orthogonalEdgeStyle;rounded=0;orthogonalLoop=1;jettySize=auto;html=1;exitX=0.5;exitY=1;exitDx=0;exitDy=0;entryX=1;entryY=0.5;entryDx=0;entryDy=0;" edge="1" parent="WIyWlLk6GJQsqaUBKTNV-1" source="IKVUPvJk9BNW48r0KVwh-6" target="IKVUPvJk9BNW48r0KVwh-3">
          <mxGeometry relative="1" as="geometry" />
        </mxCell>
        <mxCell id="IKVUPvJk9BNW48r0KVwh-6" value="action space" style="rounded=0;whiteSpace=wrap;html=1;" vertex="1" parent="WIyWlLk6GJQsqaUBKTNV-1">
          <mxGeometry x="440" y="40" width="320" height="40" as="geometry" />
        </mxCell>
        <mxCell id="IKVUPvJk9BNW48r0KVwh-13" value="" style="edgeStyle=orthogonalEdgeStyle;rounded=0;orthogonalLoop=1;jettySize=auto;html=1;" edge="1" parent="WIyWlLk6GJQsqaUBKTNV-1" source="IKVUPvJk9BNW48r0KVwh-10" target="IKVUPvJk9BNW48r0KVwh-12">
          <mxGeometry relative="1" as="geometry" />
        </mxCell>
        <mxCell id="IKVUPvJk9BNW48r0KVwh-10" value="&lt;div&gt;calculate PRL criteria&lt;/div&gt;&lt;div&gt;must be true for PRL trading&lt;br&gt;&lt;/div&gt;" style="whiteSpace=wrap;html=1;strokeWidth=2;" vertex="1" parent="WIyWlLk6GJQsqaUBKTNV-1">
          <mxGeometry x="346" y="520" width="136" height="60" as="geometry" />
        </mxCell>
        <mxCell id="IKVUPvJk9BNW48r0KVwh-15" value="" style="edgeStyle=orthogonalEdgeStyle;rounded=0;orthogonalLoop=1;jettySize=auto;html=1;" edge="1" parent="WIyWlLk6GJQsqaUBKTNV-1" source="IKVUPvJk9BNW48r0KVwh-12" target="IKVUPvJk9BNW48r0KVwh-14">
          <mxGeometry relative="1" as="geometry" />
        </mxCell>
        <mxCell id="IKVUPvJk9BNW48r0KVwh-16" value="Yes" style="edgeLabel;html=1;align=center;verticalAlign=middle;resizable=0;points=[];" vertex="1" connectable="0" parent="IKVUPvJk9BNW48r0KVwh-15">
          <mxGeometry x="-0.4118" y="4" relative="1" as="geometry">
            <mxPoint x="9" y="4" as="offset" />
          </mxGeometry>
        </mxCell>
        <mxCell id="IKVUPvJk9BNW48r0KVwh-18" value="" style="edgeStyle=orthogonalEdgeStyle;rounded=0;orthogonalLoop=1;jettySize=auto;html=1;" edge="1" parent="WIyWlLk6GJQsqaUBKTNV-1" source="IKVUPvJk9BNW48r0KVwh-12" target="IKVUPvJk9BNW48r0KVwh-17">
          <mxGeometry relative="1" as="geometry" />
        </mxCell>
        <mxCell id="IKVUPvJk9BNW48r0KVwh-19" value="No" style="edgeLabel;html=1;align=center;verticalAlign=middle;resizable=0;points=[];" vertex="1" connectable="0" parent="IKVUPvJk9BNW48r0KVwh-18">
          <mxGeometry x="-0.0588" y="-4" relative="1" as="geometry">
            <mxPoint x="-2" y="4" as="offset" />
          </mxGeometry>
        </mxCell>
        <mxCell id="IKVUPvJk9BNW48r0KVwh-12" value="check for new 4-hour block" style="rhombus;whiteSpace=wrap;html=1;strokeWidth=2;" vertex="1" parent="WIyWlLk6GJQsqaUBKTNV-1">
          <mxGeometry x="366" y="640" width="96" height="90" as="geometry" />
        </mxCell>
        <mxCell id="IKVUPvJk9BNW48r0KVwh-14" value="reset the flexibility boundaries" style="whiteSpace=wrap;html=1;strokeWidth=2;" vertex="1" parent="WIyWlLk6GJQsqaUBKTNV-1">
          <mxGeometry x="560" y="655" width="120" height="60" as="geometry" />
        </mxCell>
        <mxCell id="IKVUPvJk9BNW48r0KVwh-17" value="keep current boundaries" style="whiteSpace=wrap;html=1;strokeWidth=2;" vertex="1" parent="WIyWlLk6GJQsqaUBKTNV-1">
          <mxGeometry x="178" y="655" width="120" height="60" as="geometry" />
        </mxCell>
        <mxCell id="IKVUPvJk9BNW48r0KVwh-26" value="" style="edgeStyle=orthogonalEdgeStyle;rounded=0;orthogonalLoop=1;jettySize=auto;html=1;" edge="1" parent="WIyWlLk6GJQsqaUBKTNV-1" source="IKVUPvJk9BNW48r0KVwh-20" target="IKVUPvJk9BNW48r0KVwh-25">
          <mxGeometry relative="1" as="geometry" />
        </mxCell>
        <mxCell id="IKVUPvJk9BNW48r0KVwh-20" value="" style="verticalLabelPosition=bottom;verticalAlign=top;html=1;shape=mxgraph.flowchart.or;" vertex="1" parent="WIyWlLk6GJQsqaUBKTNV-1">
          <mxGeometry x="379" y="760" width="70" height="70" as="geometry" />
        </mxCell>
        <mxCell id="IKVUPvJk9BNW48r0KVwh-21" style="edgeStyle=orthogonalEdgeStyle;rounded=0;orthogonalLoop=1;jettySize=auto;html=1;exitX=0.5;exitY=1;exitDx=0;exitDy=0;entryX=1;entryY=0.5;entryDx=0;entryDy=0;entryPerimeter=0;" edge="1" parent="WIyWlLk6GJQsqaUBKTNV-1" source="IKVUPvJk9BNW48r0KVwh-14" target="IKVUPvJk9BNW48r0KVwh-20">
          <mxGeometry relative="1" as="geometry" />
        </mxCell>
        <mxCell id="IKVUPvJk9BNW48r0KVwh-22" style="edgeStyle=orthogonalEdgeStyle;rounded=0;orthogonalLoop=1;jettySize=auto;html=1;exitX=0.5;exitY=1;exitDx=0;exitDy=0;entryX=0;entryY=0.5;entryDx=0;entryDy=0;entryPerimeter=0;" edge="1" parent="WIyWlLk6GJQsqaUBKTNV-1" source="IKVUPvJk9BNW48r0KVwh-17" target="IKVUPvJk9BNW48r0KVwh-20">
          <mxGeometry relative="1" as="geometry" />
        </mxCell>
        <mxCell id="IKVUPvJk9BNW48r0KVwh-28" value="" style="edgeStyle=orthogonalEdgeStyle;rounded=0;orthogonalLoop=1;jettySize=auto;html=1;" edge="1" parent="WIyWlLk6GJQsqaUBKTNV-1" source="IKVUPvJk9BNW48r0KVwh-25" target="IKVUPvJk9BNW48r0KVwh-27">
          <mxGeometry relative="1" as="geometry" />
        </mxCell>
        <mxCell id="IKVUPvJk9BNW48r0KVwh-29" value="Yes" style="edgeLabel;html=1;align=center;verticalAlign=middle;resizable=0;points=[];" vertex="1" connectable="0" parent="IKVUPvJk9BNW48r0KVwh-28">
          <mxGeometry x="-0.2048" y="-1" relative="1" as="geometry">
            <mxPoint as="offset" />
          </mxGeometry>
        </mxCell>
        <mxCell id="IKVUPvJk9BNW48r0KVwh-31" value="" style="edgeStyle=orthogonalEdgeStyle;rounded=0;orthogonalLoop=1;jettySize=auto;html=1;" edge="1" parent="WIyWlLk6GJQsqaUBKTNV-1" source="IKVUPvJk9BNW48r0KVwh-25" target="IKVUPvJk9BNW48r0KVwh-30">
          <mxGeometry relative="1" as="geometry" />
        </mxCell>
        <mxCell id="IKVUPvJk9BNW48r0KVwh-32" value="No" style="edgeLabel;html=1;align=center;verticalAlign=middle;resizable=0;points=[];" vertex="1" connectable="0" parent="IKVUPvJk9BNW48r0KVwh-31">
          <mxGeometry x="0.0843" relative="1" as="geometry">
            <mxPoint as="offset" />
          </mxGeometry>
        </mxCell>
        <mxCell id="IKVUPvJk9BNW48r0KVwh-35" value="" style="edgeStyle=orthogonalEdgeStyle;rounded=0;orthogonalLoop=1;jettySize=auto;html=1;" edge="1" parent="WIyWlLk6GJQsqaUBKTNV-1" source="IKVUPvJk9BNW48r0KVwh-25" target="IKVUPvJk9BNW48r0KVwh-33">
          <mxGeometry relative="1" as="geometry" />
        </mxCell>
        <mxCell id="IKVUPvJk9BNW48r0KVwh-25" value="check the SOC against the boundaries" style="strokeWidth=2;html=1;shape=mxgraph.flowchart.decision;whiteSpace=wrap;" vertex="1" parent="WIyWlLk6GJQsqaUBKTNV-1">
          <mxGeometry x="351" y="870" width="126" height="110" as="geometry" />
        </mxCell>
        <mxCell id="IKVUPvJk9BNW48r0KVwh-27" value="reward += -10" style="whiteSpace=wrap;html=1;strokeWidth=2;" vertex="1" parent="WIyWlLk6GJQsqaUBKTNV-1">
          <mxGeometry x="560" y="895" width="120" height="60" as="geometry" />
        </mxCell>
        <mxCell id="IKVUPvJk9BNW48r0KVwh-30" value="reward += 1,5" style="whiteSpace=wrap;html=1;strokeWidth=2;" vertex="1" parent="WIyWlLk6GJQsqaUBKTNV-1">
          <mxGeometry x="148" y="895" width="120" height="60" as="geometry" />
        </mxCell>
        <mxCell id="IKVUPvJk9BNW48r0KVwh-39" value="" style="edgeStyle=orthogonalEdgeStyle;rounded=0;orthogonalLoop=1;jettySize=auto;html=1;" edge="1" parent="WIyWlLk6GJQsqaUBKTNV-1" source="IKVUPvJk9BNW48r0KVwh-33" target="IKVUPvJk9BNW48r0KVwh-38">
          <mxGeometry relative="1" as="geometry" />
        </mxCell>
        <mxCell id="IKVUPvJk9BNW48r0KVwh-33" value="" style="verticalLabelPosition=bottom;verticalAlign=top;html=1;shape=mxgraph.flowchart.or;" vertex="1" parent="WIyWlLk6GJQsqaUBKTNV-1">
          <mxGeometry x="379" y="1020" width="70" height="70" as="geometry" />
        </mxCell>
        <mxCell id="IKVUPvJk9BNW48r0KVwh-36" style="edgeStyle=orthogonalEdgeStyle;rounded=0;orthogonalLoop=1;jettySize=auto;html=1;exitX=0.5;exitY=1;exitDx=0;exitDy=0;entryX=0;entryY=0.5;entryDx=0;entryDy=0;entryPerimeter=0;" edge="1" parent="WIyWlLk6GJQsqaUBKTNV-1" source="IKVUPvJk9BNW48r0KVwh-30" target="IKVUPvJk9BNW48r0KVwh-33">
          <mxGeometry relative="1" as="geometry" />
        </mxCell>
        <mxCell id="IKVUPvJk9BNW48r0KVwh-37" style="edgeStyle=orthogonalEdgeStyle;rounded=0;orthogonalLoop=1;jettySize=auto;html=1;exitX=0.5;exitY=1;exitDx=0;exitDy=0;entryX=1;entryY=0.5;entryDx=0;entryDy=0;entryPerimeter=0;" edge="1" parent="WIyWlLk6GJQsqaUBKTNV-1" source="IKVUPvJk9BNW48r0KVwh-27" target="IKVUPvJk9BNW48r0KVwh-33">
          <mxGeometry relative="1" as="geometry" />
        </mxCell>
        <mxCell id="IKVUPvJk9BNW48r0KVwh-72" style="edgeStyle=orthogonalEdgeStyle;rounded=0;orthogonalLoop=1;jettySize=auto;html=1;exitX=0;exitY=1;exitDx=0;exitDy=0;exitPerimeter=0;" edge="1" parent="WIyWlLk6GJQsqaUBKTNV-1" source="IKVUPvJk9BNW48r0KVwh-38" target="IKVUPvJk9BNW48r0KVwh-52">
          <mxGeometry relative="1" as="geometry" />
        </mxCell>
        <mxCell id="IKVUPvJk9BNW48r0KVwh-73" style="edgeStyle=orthogonalEdgeStyle;rounded=0;orthogonalLoop=1;jettySize=auto;html=1;exitX=1;exitY=1;exitDx=0;exitDy=0;exitPerimeter=0;" edge="1" parent="WIyWlLk6GJQsqaUBKTNV-1" source="IKVUPvJk9BNW48r0KVwh-38" target="IKVUPvJk9BNW48r0KVwh-53">
          <mxGeometry relative="1" as="geometry" />
        </mxCell>
        <mxCell id="IKVUPvJk9BNW48r0KVwh-38" value="" style="verticalLabelPosition=bottom;verticalAlign=top;html=1;shape=mxgraph.flowchart.parallel_mode;pointerEvents=1" vertex="1" parent="WIyWlLk6GJQsqaUBKTNV-1">
          <mxGeometry x="366" y="1129" width="95" height="40" as="geometry" />
        </mxCell>
        <mxCell id="IKVUPvJk9BNW48r0KVwh-55" value="" style="edgeStyle=orthogonalEdgeStyle;rounded=0;orthogonalLoop=1;jettySize=auto;html=1;" edge="1" parent="WIyWlLk6GJQsqaUBKTNV-1" source="IKVUPvJk9BNW48r0KVwh-49" target="IKVUPvJk9BNW48r0KVwh-54">
          <mxGeometry relative="1" as="geometry" />
        </mxCell>
        <mxCell id="IKVUPvJk9BNW48r0KVwh-57" value="True" style="edgeLabel;html=1;align=center;verticalAlign=middle;resizable=0;points=[];" vertex="1" connectable="0" parent="IKVUPvJk9BNW48r0KVwh-55">
          <mxGeometry x="-0.0991" y="3" relative="1" as="geometry">
            <mxPoint as="offset" />
          </mxGeometry>
        </mxCell>
        <mxCell id="IKVUPvJk9BNW48r0KVwh-58" value="" style="edgeStyle=orthogonalEdgeStyle;rounded=0;orthogonalLoop=1;jettySize=auto;html=1;" edge="1" parent="WIyWlLk6GJQsqaUBKTNV-1" source="IKVUPvJk9BNW48r0KVwh-49" target="IKVUPvJk9BNW48r0KVwh-56">
          <mxGeometry relative="1" as="geometry" />
        </mxCell>
        <mxCell id="IKVUPvJk9BNW48r0KVwh-59" value="False" style="edgeLabel;html=1;align=center;verticalAlign=middle;resizable=0;points=[];" vertex="1" connectable="0" parent="IKVUPvJk9BNW48r0KVwh-58">
          <mxGeometry x="0.009" y="-1" relative="1" as="geometry">
            <mxPoint as="offset" />
          </mxGeometry>
        </mxCell>
        <mxCell id="IKVUPvJk9BNW48r0KVwh-49" value="" style="verticalLabelPosition=bottom;verticalAlign=top;html=1;shape=mxgraph.flowchart.summing_function;" vertex="1" parent="WIyWlLk6GJQsqaUBKTNV-1">
          <mxGeometry x="379" y="1340" width="70" height="70" as="geometry" />
        </mxCell>
        <mxCell id="IKVUPvJk9BNW48r0KVwh-50" style="edgeStyle=orthogonalEdgeStyle;rounded=0;orthogonalLoop=1;jettySize=auto;html=1;exitX=0.5;exitY=1;exitDx=0;exitDy=0;entryX=0.5;entryY=0;entryDx=0;entryDy=0;entryPerimeter=0;" edge="1" parent="WIyWlLk6GJQsqaUBKTNV-1" source="IKVUPvJk9BNW48r0KVwh-53" target="IKVUPvJk9BNW48r0KVwh-49">
          <mxGeometry relative="1" as="geometry">
            <mxPoint x="512" y="1310" as="sourcePoint" />
          </mxGeometry>
        </mxCell>
        <mxCell id="IKVUPvJk9BNW48r0KVwh-51" style="edgeStyle=orthogonalEdgeStyle;rounded=0;orthogonalLoop=1;jettySize=auto;html=1;entryX=0.5;entryY=0;entryDx=0;entryDy=0;entryPerimeter=0;" edge="1" parent="WIyWlLk6GJQsqaUBKTNV-1" source="IKVUPvJk9BNW48r0KVwh-52" target="IKVUPvJk9BNW48r0KVwh-49">
          <mxGeometry relative="1" as="geometry">
            <mxPoint x="329" y="1310" as="sourcePoint" />
          </mxGeometry>
        </mxCell>
        <mxCell id="IKVUPvJk9BNW48r0KVwh-52" value="&lt;font style=&quot;font-size: 10px;&quot;&gt;check if the agent wants to trade on the PRL&lt;/font&gt;" style="rounded=0;whiteSpace=wrap;html=1;" vertex="1" parent="WIyWlLk6GJQsqaUBKTNV-1">
          <mxGeometry x="280" y="1230" width="120" height="60" as="geometry" />
        </mxCell>
        <mxCell id="IKVUPvJk9BNW48r0KVwh-53" value="&lt;div&gt;check the PRL &lt;br&gt;&lt;/div&gt;&lt;div&gt;criteria&lt;br&gt;&lt;/div&gt;" style="rounded=0;whiteSpace=wrap;html=1;" vertex="1" parent="WIyWlLk6GJQsqaUBKTNV-1">
          <mxGeometry x="430" y="1230" width="120" height="60" as="geometry" />
        </mxCell>
        <mxCell id="IKVUPvJk9BNW48r0KVwh-61" value="" style="edgeStyle=orthogonalEdgeStyle;rounded=0;orthogonalLoop=1;jettySize=auto;html=1;" edge="1" parent="WIyWlLk6GJQsqaUBKTNV-1" source="IKVUPvJk9BNW48r0KVwh-54" target="IKVUPvJk9BNW48r0KVwh-60">
          <mxGeometry relative="1" as="geometry" />
        </mxCell>
        <mxCell id="IKVUPvJk9BNW48r0KVwh-54" value="Agent is allowed to trade on the PRL" style="whiteSpace=wrap;html=1;verticalAlign=top;" vertex="1" parent="WIyWlLk6GJQsqaUBKTNV-1">
          <mxGeometry x="560" y="1345" width="120" height="60" as="geometry" />
        </mxCell>
        <mxCell id="IKVUPvJk9BNW48r0KVwh-78" style="edgeStyle=orthogonalEdgeStyle;rounded=0;orthogonalLoop=1;jettySize=auto;html=1;exitX=0.5;exitY=1;exitDx=0;exitDy=0;entryX=0;entryY=0.5;entryDx=0;entryDy=0;" edge="1" parent="WIyWlLk6GJQsqaUBKTNV-1" source="IKVUPvJk9BNW48r0KVwh-56" target="IKVUPvJk9BNW48r0KVwh-66">
          <mxGeometry relative="1" as="geometry" />
        </mxCell>
        <mxCell id="IKVUPvJk9BNW48r0KVwh-56" value="Agent does not qualify" style="whiteSpace=wrap;html=1;verticalAlign=top;" vertex="1" parent="WIyWlLk6GJQsqaUBKTNV-1">
          <mxGeometry x="148" y="1345" width="120" height="60" as="geometry" />
        </mxCell>
        <mxCell id="IKVUPvJk9BNW48r0KVwh-63" value="" style="edgeStyle=orthogonalEdgeStyle;rounded=0;orthogonalLoop=1;jettySize=auto;html=1;" edge="1" parent="WIyWlLk6GJQsqaUBKTNV-1" source="IKVUPvJk9BNW48r0KVwh-60" target="IKVUPvJk9BNW48r0KVwh-65">
          <mxGeometry relative="1" as="geometry">
            <mxPoint x="620" y="1530" as="targetPoint" />
          </mxGeometry>
        </mxCell>
        <mxCell id="IKVUPvJk9BNW48r0KVwh-60" value="offers amount and price on the PRL market" style="whiteSpace=wrap;html=1;verticalAlign=top;" vertex="1" parent="WIyWlLk6GJQsqaUBKTNV-1">
          <mxGeometry x="560" y="1440" width="120" height="60" as="geometry" />
        </mxCell>
        <mxCell id="IKVUPvJk9BNW48r0KVwh-67" value="" style="edgeStyle=orthogonalEdgeStyle;rounded=0;orthogonalLoop=1;jettySize=auto;html=1;" edge="1" parent="WIyWlLk6GJQsqaUBKTNV-1" source="IKVUPvJk9BNW48r0KVwh-65" target="IKVUPvJk9BNW48r0KVwh-66">
          <mxGeometry relative="1" as="geometry" />
        </mxCell>
        <mxCell id="IKVUPvJk9BNW48r0KVwh-68" value="No" style="edgeLabel;html=1;align=center;verticalAlign=middle;resizable=0;points=[];" vertex="1" connectable="0" parent="IKVUPvJk9BNW48r0KVwh-67">
          <mxGeometry x="-0.035" y="1" relative="1" as="geometry">
            <mxPoint as="offset" />
          </mxGeometry>
        </mxCell>
        <mxCell id="IKVUPvJk9BNW48r0KVwh-70" value="" style="edgeStyle=orthogonalEdgeStyle;rounded=0;orthogonalLoop=1;jettySize=auto;html=1;" edge="1" parent="WIyWlLk6GJQsqaUBKTNV-1" source="IKVUPvJk9BNW48r0KVwh-65" target="IKVUPvJk9BNW48r0KVwh-69">
          <mxGeometry relative="1" as="geometry" />
        </mxCell>
        <mxCell id="IKVUPvJk9BNW48r0KVwh-71" value="&lt;div&gt;Yes&lt;/div&gt;" style="edgeLabel;html=1;align=center;verticalAlign=middle;resizable=0;points=[];" vertex="1" connectable="0" parent="IKVUPvJk9BNW48r0KVwh-70">
          <mxGeometry x="-0.3147" y="-2" relative="1" as="geometry">
            <mxPoint x="1" as="offset" />
          </mxGeometry>
        </mxCell>
        <mxCell id="IKVUPvJk9BNW48r0KVwh-65" value="&lt;div&gt;market accepts&lt;/div&gt;&lt;div&gt;&amp;nbsp;offer?&lt;/div&gt;" style="strokeWidth=2;html=1;shape=mxgraph.flowchart.decision;whiteSpace=wrap;" vertex="1" parent="WIyWlLk6GJQsqaUBKTNV-1">
          <mxGeometry x="568.5" y="1540" width="103" height="100" as="geometry" />
        </mxCell>
        <mxCell id="IKVUPvJk9BNW48r0KVwh-66" value="reward += penalty" style="whiteSpace=wrap;html=1;strokeWidth=2;" vertex="1" parent="WIyWlLk6GJQsqaUBKTNV-1">
          <mxGeometry x="354" y="1560" width="120" height="60" as="geometry" />
        </mxCell>
        <mxCell id="IKVUPvJk9BNW48r0KVwh-75" value="" style="edgeStyle=orthogonalEdgeStyle;rounded=0;orthogonalLoop=1;jettySize=auto;html=1;" edge="1" parent="WIyWlLk6GJQsqaUBKTNV-1" source="IKVUPvJk9BNW48r0KVwh-69" target="IKVUPvJk9BNW48r0KVwh-74">
          <mxGeometry relative="1" as="geometry" />
        </mxCell>
        <mxCell id="IKVUPvJk9BNW48r0KVwh-69" value="&lt;div&gt;update saving&lt;/div&gt;&lt;div&gt;set PRL blocker &lt;br&gt;&lt;/div&gt;&lt;div&gt;update battery&lt;br&gt;&lt;/div&gt;" style="whiteSpace=wrap;html=1;strokeWidth=2;" vertex="1" parent="WIyWlLk6GJQsqaUBKTNV-1">
          <mxGeometry x="743" y="1560" width="120" height="60" as="geometry" />
        </mxCell>
        <mxCell id="IKVUPvJk9BNW48r0KVwh-77" value="" style="edgeStyle=orthogonalEdgeStyle;rounded=0;orthogonalLoop=1;jettySize=auto;html=1;" edge="1" parent="WIyWlLk6GJQsqaUBKTNV-1" source="IKVUPvJk9BNW48r0KVwh-74" target="IKVUPvJk9BNW48r0KVwh-76">
          <mxGeometry relative="1" as="geometry" />
        </mxCell>
        <mxCell id="IKVUPvJk9BNW48r0KVwh-74" value="&lt;div&gt;update the flexibility boundaries&lt;/div&gt;&lt;div&gt;based on the offerd amount&lt;br&gt;&lt;/div&gt;" style="whiteSpace=wrap;html=1;strokeWidth=2;" vertex="1" parent="WIyWlLk6GJQsqaUBKTNV-1">
          <mxGeometry x="743" y="1660" width="120" height="60" as="geometry" />
        </mxCell>
        <mxCell id="IKVUPvJk9BNW48r0KVwh-76" value="reward += market return" style="whiteSpace=wrap;html=1;strokeWidth=2;" vertex="1" parent="WIyWlLk6GJQsqaUBKTNV-1">
          <mxGeometry x="743" y="1760" width="120" height="60" as="geometry" />
        </mxCell>
        <mxCell id="IKVUPvJk9BNW48r0KVwh-83" value="" style="edgeStyle=orthogonalEdgeStyle;rounded=0;orthogonalLoop=1;jettySize=auto;html=1;entryX=0.5;entryY=0;entryDx=0;entryDy=0;entryPerimeter=0;" edge="1" parent="WIyWlLk6GJQsqaUBKTNV-1" source="IKVUPvJk9BNW48r0KVwh-79" target="IKVUPvJk9BNW48r0KVwh-84">
          <mxGeometry relative="1" as="geometry">
            <mxPoint x="414" y="1900" as="targetPoint" />
          </mxGeometry>
        </mxCell>
        <mxCell id="IKVUPvJk9BNW48r0KVwh-79" value="" style="verticalLabelPosition=bottom;verticalAlign=top;html=1;shape=mxgraph.flowchart.or;" vertex="1" parent="WIyWlLk6GJQsqaUBKTNV-1">
          <mxGeometry x="379" y="1755" width="70" height="70" as="geometry" />
        </mxCell>
        <mxCell id="IKVUPvJk9BNW48r0KVwh-80" style="edgeStyle=orthogonalEdgeStyle;rounded=0;orthogonalLoop=1;jettySize=auto;html=1;exitX=0.5;exitY=1;exitDx=0;exitDy=0;entryX=0.5;entryY=0;entryDx=0;entryDy=0;entryPerimeter=0;" edge="1" parent="WIyWlLk6GJQsqaUBKTNV-1" source="IKVUPvJk9BNW48r0KVwh-66" target="IKVUPvJk9BNW48r0KVwh-79">
          <mxGeometry relative="1" as="geometry" />
        </mxCell>
        <mxCell id="IKVUPvJk9BNW48r0KVwh-81" style="edgeStyle=orthogonalEdgeStyle;rounded=0;orthogonalLoop=1;jettySize=auto;html=1;exitX=0;exitY=0.5;exitDx=0;exitDy=0;entryX=1;entryY=0.5;entryDx=0;entryDy=0;entryPerimeter=0;" edge="1" parent="WIyWlLk6GJQsqaUBKTNV-1" source="IKVUPvJk9BNW48r0KVwh-76" target="IKVUPvJk9BNW48r0KVwh-79">
          <mxGeometry relative="1" as="geometry" />
        </mxCell>
        <mxCell id="IKVUPvJk9BNW48r0KVwh-86" value="" style="edgeStyle=orthogonalEdgeStyle;rounded=0;orthogonalLoop=1;jettySize=auto;html=1;" edge="1" parent="WIyWlLk6GJQsqaUBKTNV-1" source="IKVUPvJk9BNW48r0KVwh-84" target="IKVUPvJk9BNW48r0KVwh-85">
          <mxGeometry relative="1" as="geometry" />
        </mxCell>
        <mxCell id="IKVUPvJk9BNW48r0KVwh-87" value="No" style="edgeLabel;html=1;align=center;verticalAlign=middle;resizable=0;points=[];" vertex="1" connectable="0" parent="IKVUPvJk9BNW48r0KVwh-86">
          <mxGeometry x="0.1189" relative="1" as="geometry">
            <mxPoint x="10" as="offset" />
          </mxGeometry>
        </mxCell>
        <mxCell id="IKVUPvJk9BNW48r0KVwh-89" value="" style="edgeStyle=orthogonalEdgeStyle;rounded=0;orthogonalLoop=1;jettySize=auto;html=1;entryX=0;entryY=0.5;entryDx=0;entryDy=0;entryPerimeter=0;" edge="1" parent="WIyWlLk6GJQsqaUBKTNV-1" source="IKVUPvJk9BNW48r0KVwh-84" target="IKVUPvJk9BNW48r0KVwh-91">
          <mxGeometry relative="1" as="geometry">
            <mxPoint x="560" y="1920" as="targetPoint" />
          </mxGeometry>
        </mxCell>
        <mxCell id="IKVUPvJk9BNW48r0KVwh-90" value="Yes" style="edgeLabel;html=1;align=center;verticalAlign=middle;resizable=0;points=[];" vertex="1" connectable="0" parent="IKVUPvJk9BNW48r0KVwh-89">
          <mxGeometry x="0.035" y="4" relative="1" as="geometry">
            <mxPoint x="-6" y="4" as="offset" />
          </mxGeometry>
        </mxCell>
        <mxCell id="IKVUPvJk9BNW48r0KVwh-84" value="&lt;div&gt;DA amount&lt;/div&gt;&lt;div&gt;above&lt;/div&gt;&lt;div&gt;&amp;nbsp;threshold&lt;br&gt;&lt;/div&gt;" style="strokeWidth=2;html=1;shape=mxgraph.flowchart.decision;whiteSpace=wrap;" vertex="1" parent="WIyWlLk6GJQsqaUBKTNV-1">
          <mxGeometry x="362" y="1870" width="103" height="100" as="geometry" />
        </mxCell>
        <mxCell id="IKVUPvJk9BNW48r0KVwh-126" value="" style="edgeStyle=orthogonalEdgeStyle;rounded=0;orthogonalLoop=1;jettySize=auto;html=1;entryX=0;entryY=0.5;entryDx=0;entryDy=0;entryPerimeter=0;" edge="1" parent="WIyWlLk6GJQsqaUBKTNV-1" source="IKVUPvJk9BNW48r0KVwh-85" target="IKVUPvJk9BNW48r0KVwh-135">
          <mxGeometry relative="1" as="geometry">
            <mxPoint x="230.5" y="2278" as="targetPoint" />
            <Array as="points">
              <mxPoint x="231" y="2875" />
            </Array>
          </mxGeometry>
        </mxCell>
        <mxCell id="IKVUPvJk9BNW48r0KVwh-85" value="&lt;div&gt;Holding&lt;/div&gt;&lt;div&gt;reward += 1 &lt;br&gt;&lt;/div&gt;" style="whiteSpace=wrap;html=1;strokeWidth=2;" vertex="1" parent="WIyWlLk6GJQsqaUBKTNV-1">
          <mxGeometry x="170.5" y="1890" width="120" height="60" as="geometry" />
        </mxCell>
        <mxCell id="IKVUPvJk9BNW48r0KVwh-93" value="" style="edgeStyle=orthogonalEdgeStyle;rounded=0;orthogonalLoop=1;jettySize=auto;html=1;" edge="1" parent="WIyWlLk6GJQsqaUBKTNV-1" source="IKVUPvJk9BNW48r0KVwh-91" target="IKVUPvJk9BNW48r0KVwh-92">
          <mxGeometry relative="1" as="geometry" />
        </mxCell>
        <mxCell id="IKVUPvJk9BNW48r0KVwh-94" value="&lt;div&gt;yes&lt;/div&gt;" style="edgeLabel;html=1;align=center;verticalAlign=middle;resizable=0;points=[];" vertex="1" connectable="0" parent="IKVUPvJk9BNW48r0KVwh-93">
          <mxGeometry x="-0.035" y="-2" relative="1" as="geometry">
            <mxPoint x="-5" y="-2" as="offset" />
          </mxGeometry>
        </mxCell>
        <mxCell id="IKVUPvJk9BNW48r0KVwh-96" value="" style="edgeStyle=orthogonalEdgeStyle;rounded=0;orthogonalLoop=1;jettySize=auto;html=1;" edge="1" parent="WIyWlLk6GJQsqaUBKTNV-1" source="IKVUPvJk9BNW48r0KVwh-91" target="IKVUPvJk9BNW48r0KVwh-95">
          <mxGeometry relative="1" as="geometry" />
        </mxCell>
        <mxCell id="IKVUPvJk9BNW48r0KVwh-97" value="No" style="edgeLabel;html=1;align=center;verticalAlign=middle;resizable=0;points=[];" vertex="1" connectable="0" parent="IKVUPvJk9BNW48r0KVwh-96">
          <mxGeometry x="-0.2" y="2" relative="1" as="geometry">
            <mxPoint as="offset" />
          </mxGeometry>
        </mxCell>
        <mxCell id="IKVUPvJk9BNW48r0KVwh-91" value="&lt;div&gt;DA amount&lt;/div&gt;&lt;div&gt;&amp;nbsp;within boundaries?&lt;br&gt;&lt;/div&gt;" style="strokeWidth=2;html=1;shape=mxgraph.flowchart.decision;whiteSpace=wrap;" vertex="1" parent="WIyWlLk6GJQsqaUBKTNV-1">
          <mxGeometry x="568.5" y="1870" width="103" height="100" as="geometry" />
        </mxCell>
        <mxCell id="IKVUPvJk9BNW48r0KVwh-99" value="" style="edgeStyle=orthogonalEdgeStyle;rounded=0;orthogonalLoop=1;jettySize=auto;html=1;entryX=0.5;entryY=0;entryDx=0;entryDy=0;entryPerimeter=0;" edge="1" parent="WIyWlLk6GJQsqaUBKTNV-1" source="IKVUPvJk9BNW48r0KVwh-92" target="IKVUPvJk9BNW48r0KVwh-100">
          <mxGeometry relative="1" as="geometry">
            <mxPoint x="803" y="2010" as="targetPoint" />
          </mxGeometry>
        </mxCell>
        <mxCell id="IKVUPvJk9BNW48r0KVwh-92" value="&lt;div&gt;allowed to trade on the DA&lt;br&gt;&lt;/div&gt;" style="whiteSpace=wrap;html=1;strokeWidth=2;" vertex="1" parent="WIyWlLk6GJQsqaUBKTNV-1">
          <mxGeometry x="743" y="1890" width="120" height="60" as="geometry" />
        </mxCell>
        <mxCell id="IKVUPvJk9BNW48r0KVwh-95" value="reward += penalty" style="whiteSpace=wrap;html=1;strokeWidth=2;" vertex="1" parent="WIyWlLk6GJQsqaUBKTNV-1">
          <mxGeometry x="482" y="2290" width="120" height="60" as="geometry" />
        </mxCell>
        <mxCell id="IKVUPvJk9BNW48r0KVwh-102" value="" style="edgeStyle=orthogonalEdgeStyle;rounded=0;orthogonalLoop=1;jettySize=auto;html=1;" edge="1" parent="WIyWlLk6GJQsqaUBKTNV-1" source="IKVUPvJk9BNW48r0KVwh-100" target="IKVUPvJk9BNW48r0KVwh-101">
          <mxGeometry relative="1" as="geometry" />
        </mxCell>
        <mxCell id="IKVUPvJk9BNW48r0KVwh-104" value="" style="edgeStyle=orthogonalEdgeStyle;rounded=0;orthogonalLoop=1;jettySize=auto;html=1;" edge="1" parent="WIyWlLk6GJQsqaUBKTNV-1" source="IKVUPvJk9BNW48r0KVwh-100" target="IKVUPvJk9BNW48r0KVwh-103">
          <mxGeometry relative="1" as="geometry" />
        </mxCell>
        <mxCell id="IKVUPvJk9BNW48r0KVwh-100" value="&lt;div&gt;Amount &amp;lt; 0&amp;nbsp;&lt;/div&gt;&lt;div&gt;or&lt;/div&gt;&lt;div&gt;Amount &amp;gt;0&lt;br&gt;&lt;/div&gt;" style="strokeWidth=2;html=1;shape=mxgraph.flowchart.decision;whiteSpace=wrap;" vertex="1" parent="WIyWlLk6GJQsqaUBKTNV-1">
          <mxGeometry x="751.5" y="2010" width="103" height="100" as="geometry" />
        </mxCell>
        <mxCell id="IKVUPvJk9BNW48r0KVwh-110" value="" style="edgeStyle=orthogonalEdgeStyle;rounded=0;orthogonalLoop=1;jettySize=auto;html=1;" edge="1" parent="WIyWlLk6GJQsqaUBKTNV-1" source="IKVUPvJk9BNW48r0KVwh-101" target="IKVUPvJk9BNW48r0KVwh-109">
          <mxGeometry relative="1" as="geometry" />
        </mxCell>
        <mxCell id="IKVUPvJk9BNW48r0KVwh-101" value="Buy trade" style="whiteSpace=wrap;html=1;strokeWidth=2;" vertex="1" parent="WIyWlLk6GJQsqaUBKTNV-1">
          <mxGeometry x="827" y="2160" width="120" height="60" as="geometry" />
        </mxCell>
        <mxCell id="IKVUPvJk9BNW48r0KVwh-117" value="" style="edgeStyle=orthogonalEdgeStyle;rounded=0;orthogonalLoop=1;jettySize=auto;html=1;" edge="1" parent="WIyWlLk6GJQsqaUBKTNV-1" source="IKVUPvJk9BNW48r0KVwh-103" target="IKVUPvJk9BNW48r0KVwh-116">
          <mxGeometry relative="1" as="geometry" />
        </mxCell>
        <mxCell id="IKVUPvJk9BNW48r0KVwh-103" value="Sell trade" style="whiteSpace=wrap;html=1;strokeWidth=2;" vertex="1" parent="WIyWlLk6GJQsqaUBKTNV-1">
          <mxGeometry x="640" y="2160" width="120" height="60" as="geometry" />
        </mxCell>
        <mxCell id="IKVUPvJk9BNW48r0KVwh-112" value="" style="edgeStyle=orthogonalEdgeStyle;rounded=0;orthogonalLoop=1;jettySize=auto;html=1;entryX=0.5;entryY=0;entryDx=0;entryDy=0;entryPerimeter=0;" edge="1" parent="WIyWlLk6GJQsqaUBKTNV-1" source="IKVUPvJk9BNW48r0KVwh-109" target="IKVUPvJk9BNW48r0KVwh-114">
          <mxGeometry relative="1" as="geometry">
            <mxPoint x="887" y="2370" as="targetPoint" />
          </mxGeometry>
        </mxCell>
        <mxCell id="IKVUPvJk9BNW48r0KVwh-109" value="" style="verticalLabelPosition=bottom;verticalAlign=top;html=1;shape=mxgraph.flowchart.parallel_mode;pointerEvents=1" vertex="1" parent="WIyWlLk6GJQsqaUBKTNV-1">
          <mxGeometry x="839.5" y="2270" width="95" height="40" as="geometry" />
        </mxCell>
        <mxCell id="IKVUPvJk9BNW48r0KVwh-113" value="&lt;div&gt;check for&amp;nbsp;&lt;/div&gt;&lt;div&gt;savings &lt;/div&gt;" style="strokeWidth=2;html=1;shape=mxgraph.flowchart.decision;whiteSpace=wrap;" vertex="1" parent="WIyWlLk6GJQsqaUBKTNV-1">
          <mxGeometry x="780" y="2360" width="103" height="100" as="geometry" />
        </mxCell>
        <mxCell id="IKVUPvJk9BNW48r0KVwh-114" value="&lt;div&gt;check for&lt;/div&gt;&lt;div&gt;battery&lt;/div&gt;&lt;div&gt;capacity&lt;br&gt;&lt;/div&gt;" style="strokeWidth=2;html=1;shape=mxgraph.flowchart.decision;whiteSpace=wrap;" vertex="1" parent="WIyWlLk6GJQsqaUBKTNV-1">
          <mxGeometry x="890" y="2360" width="103" height="100" as="geometry" />
        </mxCell>
        <mxCell id="IKVUPvJk9BNW48r0KVwh-115" style="edgeStyle=orthogonalEdgeStyle;rounded=0;orthogonalLoop=1;jettySize=auto;html=1;exitX=0.5;exitY=1;exitDx=0;exitDy=0;exitPerimeter=0;entryX=0.5;entryY=0;entryDx=0;entryDy=0;entryPerimeter=0;" edge="1" parent="WIyWlLk6GJQsqaUBKTNV-1" source="IKVUPvJk9BNW48r0KVwh-109" target="IKVUPvJk9BNW48r0KVwh-113">
          <mxGeometry relative="1" as="geometry" />
        </mxCell>
        <mxCell id="IKVUPvJk9BNW48r0KVwh-123" style="edgeStyle=orthogonalEdgeStyle;rounded=0;orthogonalLoop=1;jettySize=auto;html=1;exitX=0.5;exitY=1;exitDx=0;exitDy=0;exitPerimeter=0;" edge="1" parent="WIyWlLk6GJQsqaUBKTNV-1" source="IKVUPvJk9BNW48r0KVwh-116" target="IKVUPvJk9BNW48r0KVwh-121">
          <mxGeometry relative="1" as="geometry" />
        </mxCell>
        <mxCell id="IKVUPvJk9BNW48r0KVwh-127" value="" style="edgeStyle=orthogonalEdgeStyle;rounded=0;orthogonalLoop=1;jettySize=auto;html=1;" edge="1" parent="WIyWlLk6GJQsqaUBKTNV-1" source="IKVUPvJk9BNW48r0KVwh-116" target="IKVUPvJk9BNW48r0KVwh-95">
          <mxGeometry relative="1" as="geometry" />
        </mxCell>
        <mxCell id="IKVUPvJk9BNW48r0KVwh-116" value="&lt;div&gt;check for&lt;/div&gt;&lt;div&gt;battery&lt;/div&gt;&lt;div&gt;capacity&lt;br&gt;&lt;/div&gt;" style="strokeWidth=2;html=1;shape=mxgraph.flowchart.decision;whiteSpace=wrap;" vertex="1" parent="WIyWlLk6GJQsqaUBKTNV-1">
          <mxGeometry x="648.5" y="2270" width="103" height="100" as="geometry" />
        </mxCell>
        <mxCell id="IKVUPvJk9BNW48r0KVwh-122" value="" style="edgeStyle=orthogonalEdgeStyle;rounded=0;orthogonalLoop=1;jettySize=auto;html=1;" edge="1" parent="WIyWlLk6GJQsqaUBKTNV-1" source="IKVUPvJk9BNW48r0KVwh-118" target="IKVUPvJk9BNW48r0KVwh-121">
          <mxGeometry relative="1" as="geometry" />
        </mxCell>
        <mxCell id="IKVUPvJk9BNW48r0KVwh-118" value="" style="verticalLabelPosition=bottom;verticalAlign=top;html=1;shape=mxgraph.flowchart.summing_function;" vertex="1" parent="WIyWlLk6GJQsqaUBKTNV-1">
          <mxGeometry x="852" y="2510" width="70" height="70" as="geometry" />
        </mxCell>
        <mxCell id="IKVUPvJk9BNW48r0KVwh-119" style="edgeStyle=orthogonalEdgeStyle;rounded=0;orthogonalLoop=1;jettySize=auto;html=1;exitX=0.5;exitY=1;exitDx=0;exitDy=0;exitPerimeter=0;entryX=0.5;entryY=0;entryDx=0;entryDy=0;entryPerimeter=0;" edge="1" parent="WIyWlLk6GJQsqaUBKTNV-1" source="IKVUPvJk9BNW48r0KVwh-114" target="IKVUPvJk9BNW48r0KVwh-118">
          <mxGeometry relative="1" as="geometry" />
        </mxCell>
        <mxCell id="IKVUPvJk9BNW48r0KVwh-120" style="edgeStyle=orthogonalEdgeStyle;rounded=0;orthogonalLoop=1;jettySize=auto;html=1;exitX=0.5;exitY=1;exitDx=0;exitDy=0;exitPerimeter=0;entryX=0.5;entryY=0;entryDx=0;entryDy=0;entryPerimeter=0;" edge="1" parent="WIyWlLk6GJQsqaUBKTNV-1" source="IKVUPvJk9BNW48r0KVwh-113" target="IKVUPvJk9BNW48r0KVwh-118">
          <mxGeometry relative="1" as="geometry" />
        </mxCell>
        <mxCell id="IKVUPvJk9BNW48r0KVwh-130" value="" style="edgeStyle=orthogonalEdgeStyle;rounded=0;orthogonalLoop=1;jettySize=auto;html=1;" edge="1" parent="WIyWlLk6GJQsqaUBKTNV-1" source="IKVUPvJk9BNW48r0KVwh-121" target="IKVUPvJk9BNW48r0KVwh-129">
          <mxGeometry relative="1" as="geometry" />
        </mxCell>
        <mxCell id="IKVUPvJk9BNW48r0KVwh-121" value="&lt;div&gt;valid&lt;/div&gt;&lt;div&gt;trade&lt;br&gt;&lt;/div&gt;" style="whiteSpace=wrap;html=1;verticalAlign=top;" vertex="1" parent="WIyWlLk6GJQsqaUBKTNV-1">
          <mxGeometry x="640" y="2515" width="120" height="60" as="geometry" />
        </mxCell>
        <mxCell id="IKVUPvJk9BNW48r0KVwh-132" value="" style="edgeStyle=orthogonalEdgeStyle;rounded=0;orthogonalLoop=1;jettySize=auto;html=1;" edge="1" parent="WIyWlLk6GJQsqaUBKTNV-1" source="IKVUPvJk9BNW48r0KVwh-129" target="IKVUPvJk9BNW48r0KVwh-131">
          <mxGeometry relative="1" as="geometry" />
        </mxCell>
        <mxCell id="IKVUPvJk9BNW48r0KVwh-129" value="&lt;div&gt;market accepts&lt;/div&gt;&lt;div&gt;&amp;nbsp;offer?&lt;/div&gt;" style="strokeWidth=2;html=1;shape=mxgraph.flowchart.decision;whiteSpace=wrap;" vertex="1" parent="WIyWlLk6GJQsqaUBKTNV-1">
          <mxGeometry x="648.5" y="2610" width="103" height="100" as="geometry" />
        </mxCell>
        <mxCell id="IKVUPvJk9BNW48r0KVwh-134" value="" style="edgeStyle=orthogonalEdgeStyle;rounded=0;orthogonalLoop=1;jettySize=auto;html=1;" edge="1" parent="WIyWlLk6GJQsqaUBKTNV-1" source="IKVUPvJk9BNW48r0KVwh-131" target="IKVUPvJk9BNW48r0KVwh-133">
          <mxGeometry relative="1" as="geometry" />
        </mxCell>
        <mxCell id="IKVUPvJk9BNW48r0KVwh-131" value="&lt;div&gt;update saving&lt;/div&gt;&lt;div&gt;update battery&lt;br&gt;&lt;/div&gt;" style="whiteSpace=wrap;html=1;strokeWidth=2;" vertex="1" parent="WIyWlLk6GJQsqaUBKTNV-1">
          <mxGeometry x="640" y="2740" width="120" height="60" as="geometry" />
        </mxCell>
        <mxCell id="IKVUPvJk9BNW48r0KVwh-133" value="reward += market return" style="whiteSpace=wrap;html=1;strokeWidth=2;" vertex="1" parent="WIyWlLk6GJQsqaUBKTNV-1">
          <mxGeometry x="640" y="2845" width="120" height="60" as="geometry" />
        </mxCell>
        <mxCell id="IKVUPvJk9BNW48r0KVwh-139" value="" style="edgeStyle=orthogonalEdgeStyle;rounded=0;orthogonalLoop=1;jettySize=auto;html=1;" edge="1" parent="WIyWlLk6GJQsqaUBKTNV-1" source="IKVUPvJk9BNW48r0KVwh-135" target="IKVUPvJk9BNW48r0KVwh-138">
          <mxGeometry relative="1" as="geometry" />
        </mxCell>
        <mxCell id="IKVUPvJk9BNW48r0KVwh-135" value="" style="verticalLabelPosition=bottom;verticalAlign=top;html=1;shape=mxgraph.flowchart.or;" vertex="1" parent="WIyWlLk6GJQsqaUBKTNV-1">
          <mxGeometry x="360" y="2840" width="70" height="70" as="geometry" />
        </mxCell>
        <mxCell id="IKVUPvJk9BNW48r0KVwh-136" style="edgeStyle=orthogonalEdgeStyle;rounded=0;orthogonalLoop=1;jettySize=auto;html=1;exitX=0.5;exitY=1;exitDx=0;exitDy=0;entryX=0.5;entryY=0;entryDx=0;entryDy=0;entryPerimeter=0;" edge="1" parent="WIyWlLk6GJQsqaUBKTNV-1" source="IKVUPvJk9BNW48r0KVwh-95" target="IKVUPvJk9BNW48r0KVwh-135">
          <mxGeometry relative="1" as="geometry" />
        </mxCell>
        <mxCell id="IKVUPvJk9BNW48r0KVwh-137" style="edgeStyle=orthogonalEdgeStyle;rounded=0;orthogonalLoop=1;jettySize=auto;html=1;entryX=1;entryY=0.5;entryDx=0;entryDy=0;entryPerimeter=0;" edge="1" parent="WIyWlLk6GJQsqaUBKTNV-1" source="IKVUPvJk9BNW48r0KVwh-133" target="IKVUPvJk9BNW48r0KVwh-135">
          <mxGeometry relative="1" as="geometry" />
        </mxCell>
        <mxCell id="IKVUPvJk9BNW48r0KVwh-141" value="" style="edgeStyle=orthogonalEdgeStyle;rounded=0;orthogonalLoop=1;jettySize=auto;html=1;" edge="1" parent="WIyWlLk6GJQsqaUBKTNV-1" source="IKVUPvJk9BNW48r0KVwh-138" target="IKVUPvJk9BNW48r0KVwh-140">
          <mxGeometry relative="1" as="geometry" />
        </mxCell>
        <mxCell id="IKVUPvJk9BNW48r0KVwh-138" value="update 4-hour blocker" style="whiteSpace=wrap;html=1;verticalAlign=top;" vertex="1" parent="WIyWlLk6GJQsqaUBKTNV-1">
          <mxGeometry x="335" y="2995" width="120" height="60" as="geometry" />
        </mxCell>
        <mxCell id="IKVUPvJk9BNW48r0KVwh-140" value="collect new opservations" style="whiteSpace=wrap;html=1;verticalAlign=top;" vertex="1" parent="WIyWlLk6GJQsqaUBKTNV-1">
          <mxGeometry x="335" y="3135" width="120" height="60" as="geometry" />
        </mxCell>
        <mxCell id="IKVUPvJk9BNW48r0KVwh-142" style="edgeStyle=orthogonalEdgeStyle;rounded=0;orthogonalLoop=1;jettySize=auto;html=1;exitX=0;exitY=0.5;exitDx=0;exitDy=0;entryX=0.061;entryY=0.987;entryDx=0;entryDy=0;entryPerimeter=0;" edge="1" parent="WIyWlLk6GJQsqaUBKTNV-1" source="IKVUPvJk9BNW48r0KVwh-140" target="IKVUPvJk9BNW48r0KVwh-5">
          <mxGeometry relative="1" as="geometry" />
        </mxCell>
        <mxCell id="IKVUPvJk9BNW48r0KVwh-143" value="return reward" style="strokeWidth=2;html=1;shape=mxgraph.flowchart.terminator;whiteSpace=wrap;" vertex="1" parent="WIyWlLk6GJQsqaUBKTNV-1">
          <mxGeometry x="610" y="3135" width="100" height="60" as="geometry" />
        </mxCell>
        <mxCell id="IKVUPvJk9BNW48r0KVwh-144" style="edgeStyle=orthogonalEdgeStyle;rounded=0;orthogonalLoop=1;jettySize=auto;html=1;exitX=1;exitY=0.5;exitDx=0;exitDy=0;entryX=0;entryY=0.5;entryDx=0;entryDy=0;entryPerimeter=0;" edge="1" parent="WIyWlLk6GJQsqaUBKTNV-1" source="IKVUPvJk9BNW48r0KVwh-140" target="IKVUPvJk9BNW48r0KVwh-143">
          <mxGeometry relative="1" as="geometry" />
        </mxCell>
      </root>
    </mxGraphModel>
  </diagram>
</mxfile>
